<?xml version="1.0" encoding="iso-8859-1"?>
<!DOCTYPE svg PUBLIC "-//W3C//DTD SVG 1.1//EN" "http://www.w3.org/Graphics/SVG/1.1/DTD/svg11.dtd">
<svg version="1.1" id="Capa_1" xmlns="http://www.w3.org/2000/svg" xmlns:xlink="http://www.w3.org/1999/xlink" x="0px" y="0px"
	 width="800px" height="800px" viewBox="0 0 800 800" style="enable-background:new 0 0 800 800;" xml:space="preserve">
<g>
	<path d="M337.68,641.905V525.845c0-15.45-12.667-27.93-28.329-27.93H148.262c-15.597,0-28.262,12.479-28.262,27.93v116.061
		c0,15.409,12.666,27.908,28.262,27.908h161.088C325.014,669.812,337.68,657.314,337.68,641.905z M356.252,84.809
		C356.252,37.978,394.162,0,440.909,0c46.748,0,84.657,37.978,84.657,84.809c0,46.789-37.909,84.723-84.657,84.723
		C394.162,169.532,356.252,131.598,356.252,84.809z M667.908,358.594c-9.078,6.728-18.419,13.151-27.76,19.575
		c-9.145,6.293-18.287,12.565-27.146,19.185l-2.101,1.671c-4.505,3.688-15.643,12.781-30.538,12.781
		c-5.818,0-12.229-1.389-19.031-5.013c-24.74-13.13-30.801-40.951-34.409-57.553c-1.837-8.355-3.237-16.21-4.682-24.153
		c-2.43-13.63-4.771-25.392-7.7-35.525c3.084,38.649,5.95,77.322,8.006,116.015c0.897,16.862,1.708,33.769,1.817,50.651
		c0.151,20.638-1.14,34.7,8.006,53.818c9.776,20.399,18.878,41.297,23.996,63.411c4.179,18.077,8.488,36.696,5.491,60.373
		l-16.778,132.184C542.651,785.635,525.938,800,506.688,800c-1.573,0-3.216-0.087-4.832-0.305
		c-21.221-2.625-36.291-22.004-33.646-43.25l16.777-132.424c1.204-9.461-0.567-17.838-4.09-33.027
		c-4.42-19.011-14.241-39.084-24.677-60.287c-5.774-11.826-11.658-23.85-16.932-36.263c-0.218,0-0.48,0.087-0.722,0.131
		l-0.264,112.804L414.44,764.649c-2.91,19.184-19.427,32.964-38.261,32.964c-1.925,0-3.894-0.131-5.862-0.436
		c-21.154-3.231-35.679-23.003-32.485-44.184l23.429-154.362c0,0-1.771-124.263-1.597-128.625
		c0.503-13.084,1.028-26.604,1.597-40.188v-8.965c0-2.19,0.307-4.34,0.656-6.467c2.734-64.041,5.884-126.627,7.175-152.474
		c-3.632,2.539-7.307,5.36-11.024,8.442c-24.282,20.051-44.889,44.314-66.698,70.029c-5.819,6.858-11.637,13.694-17.5,20.486
		c-5.95,6.815-6.781,13.738-7.634,31.837c-0.919,18.966-1.29,37.804-1.29,56.812c0,16.515-13.388,29.905-29.882,29.905
		c-16.493,0-29.881-13.392-29.881-29.905c0-19.965,0.394-39.733,1.334-59.679c1.028-21.179,2.166-45.182,22.248-68.273
		c5.731-6.596,11.396-13.259,17.062-19.921c22.554-26.563,45.851-54.036,74.201-77.451c18.288-15.104,39.068-27.063,60.987-35.917
		c5.075-2.039,10.281-3.711,15.554-5.077c11.879-3.082,24.172-4.666,36.443-5.078l-27.365,229.772l36.051,37.023l31.5-37.023
		l-21.812-229.708c14.745,1.021,29.488,3.754,43.445,8.703c42.612,15.083,68.514,51.91,79.342,94.25
		c2.82,11.002,4.878,22.179,6.889,33.333c1.292,7.227,2.562,14.345,4.048,21.159c0.438,1.954,0.964,4.384,1.555,6.879
		c6.519-4.622,13.082-9.157,19.665-13.672c8.751-6.033,17.501-12.022,25.987-18.337c13.302-9.809,32.005-7.031,41.826,6.229
		C683.942,330.036,681.165,348.741,667.908,358.594z"/>
</g>
</svg>
